<?xml version="1.0" standalone="no"?><!DOCTYPE svg PUBLIC "-//W3C//DTD SVG 1.1//EN" "http://www.w3.org/Graphics/SVG/1.1/DTD/svg11.dtd"><svg class="icon" height="512" viewBox="0 0 1024 1024" version="1.1" xmlns="http://www.w3.org/2000/svg"><path d="M952.228885 301.521265c0-73.860195-59.875692-133.738957-133.741004-133.738957H200.404798c-73.866335 0-133.741004 59.878762-133.741004 133.738957 0 2.993171 0.138146 5.948479 0.330528 8.889461-0.021489 0.698918-0.096191 1.387603-0.096191 2.096754v493.434156c0 31.958876 24.458041 57.880245 54.636365 57.880245h775.823687c30.178323 0 54.636365-25.920346 54.636365-57.880245V312.506457c0-0.704035-0.073678-1.382487-0.096191-2.075265 0.191358-2.950192 0.330528-5.916756 0.330528-8.909927z" fill="#F0B417" /><path d="M741.452367 167.782308H277.439288c-53.537334 0-97.150644 41.929971-100.105952 94.725408h664.226007c-2.956332-52.79646-46.569642-94.725408-100.106976-94.725408z" fill="#D63300" /><path d="M177.205423 276.42775v151.701051h664.481833V276.42775c0-0.522909-0.064468-1.035586-0.085958-1.558495 0.13917-2.048659 0.225127-4.118807 0.234337-6.210446H177.05602c0.010233 2.086521 0.096191 4.151553 0.224104 6.188956-0.011256 0.534166-0.074701 1.046842-0.074701 1.579985zM177.205423 582.390163V734.102471h664.481833V582.390163c0-0.522909-0.064468-1.035586-0.085958-1.547239 0.13917-2.059915 0.225127-4.130064 0.234337-6.221701H177.05602c0.010233 2.091638 0.096191 4.151553 0.224104 6.201235-0.011256 0.532119-0.074701 1.034563-0.074701 1.567705z" fill="#AD2B07" /><path d="M66.620815 481.452263h885.651049v43.709501H66.620815z" fill="#9F7D0F" /><path d="M613.174795 356.172979l64.11218 197.309808L509.446339 675.420977 341.60468 553.482787l64.107063-197.309808z" fill="#E9BF53" /><path d="M604.733543 369.159758L663.627884 550.408775 509.446339 662.435221 355.263771 550.408775l58.889225-181.249017z" fill="#F0B417" /><path d="M555.759131 486.190171c0-25.653263-20.792559-46.440705-46.440705-46.440705-25.648147 0-46.440705 20.787442-46.440705 46.440705 0 22.066575 15.408945 40.496319 36.035728 45.223994l-24.201192 59.864436h68.295456l-23.536043-59.799968c20.760836-4.631484 36.287461-23.134907 36.287461-45.288462z" fill="#715F39" /></svg>